<svg width="48" height="48" viewBox="0 0 48 48" fill="none" xmlns="http://www.w3.org/2000/svg">
<path d="M24 47.131C12.4552 47.131 0 39.8896 0 23.9999C0 8.11028 12.4552 0.868896 24 0.868896C30.4138 0.868896 36.331 2.97924 40.7172 6.82752C45.4759 11.0482 48 17.0068 48 23.9999C48 30.993 45.4759 36.9103 40.7172 41.131C36.331 44.9792 30.3724 47.131 24 47.131Z" fill="url(#paint0_radial_2_1164)"/>
<path d="M43.8165 10.2496C46.022 13.8083 47.1724 18.0455 47.1724 22.7586C47.1724 29.7517 44.6483 35.6689 39.8896 39.8896C35.5034 43.7379 29.5448 45.8896 23.1724 45.8896C15.6993 45.8896 7.8455 42.8483 3.23584 36.3972C7.68825 43.7048 16.0593 47.131 24 47.131C30.3724 47.131 36.331 44.9793 40.7172 41.131C45.4758 36.9103 48 30.9931 48 24C48 18.7283 46.5641 14.0441 43.8165 10.2496Z" fill="#EB8F00"/>
<path opacity="0.8" d="M8.95866 34.109C12.958 34.109 16.2 30.8669 16.2 26.8676C16.2 22.8683 12.958 19.6262 8.95866 19.6262C4.95936 19.6262 1.71729 22.8683 1.71729 26.8676C1.71729 30.8669 4.95936 34.109 8.95866 34.109Z" fill="url(#paint1_radial_2_1164)"/>
<path opacity="0.8" d="M39.3722 34.109C43.3715 34.109 46.6136 30.8669 46.6136 26.8676C46.6136 22.8683 43.3715 19.6262 39.3722 19.6262C35.3729 19.6262 32.1309 22.8683 32.1309 26.8676C32.1309 30.8669 35.3729 34.109 39.3722 34.109Z" fill="url(#paint2_radial_2_1164)"/>
<path d="M17.2056 12.7076C18.1615 12.72 18.4387 11.4125 17.4249 11.1973C16.6677 11.0442 15.836 11.0235 15.0125 11.1269C12.7077 11.3793 10.7215 12.5669 9.4263 14.1145C8.78079 14.909 9.83596 15.7449 10.5394 15.1531C12.3394 13.6925 14.7146 12.7283 17.2056 12.7076Z" fill="#422B0D"/>
<path d="M30.8028 12.9891C29.8552 13.0967 29.4497 11.8223 30.4345 11.5078C31.1752 11.2843 31.9986 11.1809 32.8262 11.2016C35.1435 11.2264 37.2372 12.2112 38.6814 13.6264C39.4014 14.3547 38.4331 15.2898 37.6759 14.7685C35.7393 13.4898 33.2814 12.7657 30.8028 12.9891Z" fill="#422B0D"/>
<path d="M24.1655 37.7796C28.6344 37.7796 31.531 34.5107 32.3172 32.9796C32.6068 32.4003 32.6068 31.9038 32.3586 31.6969C32.1517 31.5314 31.862 31.5314 31.4896 31.6969C31.3655 31.7383 31.2413 31.821 31.1172 31.9038C29.131 33.3107 26.6896 34.1797 24.1655 34.1797C21.6413 34.1797 19.1999 33.3107 17.2137 31.9452C17.0896 31.8624 16.9655 31.7796 16.8413 31.7383C16.4689 31.5728 16.1792 31.5728 15.9723 31.7383C15.7241 31.9865 15.7241 32.4417 16.0137 33.021C16.7999 34.5107 19.6965 37.7796 24.1655 37.7796Z" fill="#422B0D"/>
<path d="M19.0346 23.3917L18.9519 23.3089C18.9105 23.2675 18.7864 23.1434 18.745 23.102C18.6622 23.0193 18.5795 22.9779 18.4553 22.8538C18.3312 22.771 18.207 22.6469 18.0415 22.5641C17.876 22.4813 17.7105 22.3572 17.545 22.2744C17.3795 22.1917 17.1726 22.1089 16.9657 22.0262C16.7588 21.9434 16.5519 21.902 16.345 21.8607C16.1381 21.8193 15.9312 21.8193 15.6829 21.8193H15.6001H15.476C15.3519 21.8193 15.3519 21.8193 15.3105 21.8193C15.2277 21.8193 15.1036 21.8607 15.0208 21.8607C14.8139 21.902 14.607 21.9434 14.4001 22.0262C14.1932 22.1089 13.9863 22.1503 13.8208 22.2744C13.6553 22.3572 13.4898 22.44 13.3243 22.5641C13.0346 22.771 12.7863 22.9779 12.6208 23.102C12.4553 23.2675 12.3726 23.3503 12.3726 23.3503L12.2898 23.4331C11.7932 23.9296 10.9657 23.9296 10.3864 23.5158C9.97256 23.1848 9.84842 22.6055 10.0553 22.1917L10.0967 22.0675C10.1381 21.9848 10.1795 21.8607 10.2622 21.7365C10.4277 21.4469 10.7174 21.0331 11.1726 20.5779C11.3795 20.371 11.6691 20.1227 11.9588 19.9158C12.2484 19.7089 12.6208 19.502 12.9932 19.3365C13.3657 19.171 13.8208 19.0055 14.2346 18.9227C14.4415 18.8813 14.6898 18.84 14.9381 18.7986C15.0622 18.7986 15.2277 18.7572 15.2691 18.7572H15.6001C16.0553 18.7572 16.5105 18.7986 16.9657 18.8813C17.4208 18.9641 17.8346 19.1296 18.207 19.2951C18.5795 19.4607 18.9519 19.6675 19.2415 19.8744C19.5726 20.0813 19.8208 20.2882 20.0277 20.5365C20.2346 20.7434 20.4415 20.9503 20.5657 21.1572C20.6484 21.24 20.6898 21.3641 20.7726 21.4469C20.8139 21.5296 20.8967 21.6124 20.9381 21.6951C21.0622 21.8607 21.0622 21.9434 21.1036 22.0262C21.145 22.1089 21.145 22.1089 21.145 22.1089C21.4346 22.7296 21.1036 23.4331 20.4001 23.6813C20.0277 23.8882 19.407 23.7641 19.0346 23.3917Z" fill="#422B0D"/>
<path d="M35.9627 23.2428C35.9627 23.2428 35.9338 23.2138 35.88 23.16C35.8345 23.1145 35.731 22.9986 35.6689 22.9531C35.5903 22.8869 35.4952 22.8083 35.3834 22.7172C35.2634 22.6262 35.1269 22.5269 34.9779 22.4235C34.8248 22.3283 34.6593 22.229 34.4814 22.1421C34.3076 22.0469 34.1089 21.9807 33.9103 21.9062C33.7117 21.8359 33.5007 21.7986 33.2896 21.7531C33.0786 21.72 32.8593 21.7035 32.64 21.7035H32.6979H32.6938H32.6855H32.6689H32.6358H32.5696L32.4414 21.7076C32.3338 21.7076 32.3172 21.7159 32.2758 21.72C32.2096 21.72 32.0896 21.7407 31.9862 21.7572C31.7752 21.8028 31.5641 21.84 31.3655 21.9103C31.171 21.9848 30.9724 22.051 30.7986 22.1462C30.6207 22.2372 30.4552 22.3324 30.3021 22.4276C30.0041 22.6262 29.76 22.8248 29.5986 22.9738C29.4331 23.1228 29.3379 23.2138 29.3379 23.2138L29.2345 23.3172C28.7338 23.8014 27.8896 23.8303 27.3434 23.3876C26.9131 23.0359 26.8055 22.4938 27.0207 22.0428C27.0207 22.0428 27.0414 22.0014 27.0827 21.9186C27.1241 21.84 27.1738 21.7159 27.2648 21.571C27.4345 21.2772 27.7158 20.8635 28.1627 20.429C28.3862 20.2138 28.6469 19.9862 28.9572 19.7793C29.2593 19.5641 29.611 19.3697 30 19.2C30.3889 19.0345 30.811 18.8897 31.2579 18.7986C31.4855 18.7572 31.6965 18.7159 31.9738 18.691C32.1021 18.6786 32.2552 18.6662 32.3214 18.6621L32.64 18.6497C33.1076 18.6579 33.571 18.7076 34.0221 18.7945C34.4689 18.8855 34.891 19.0303 35.28 19.1959C35.6648 19.3655 36.0207 19.56 36.3227 19.7752C36.6331 19.9821 36.8896 20.2055 37.1131 20.4248C37.3365 20.64 37.5145 20.8552 37.6634 21.0497C37.7338 21.149 37.8 21.24 37.8621 21.3269C37.92 21.4221 37.9779 21.509 38.0234 21.5876C38.1352 21.7614 38.1434 21.8276 38.1848 21.9062C38.2138 21.9724 38.2303 22.0097 38.2303 22.0097C38.5076 22.6262 38.1724 23.3255 37.4814 23.5738C36.9393 23.7683 36.331 23.6193 35.9627 23.2428Z" fill="#422B0D"/>
<defs>
<radialGradient id="paint0_radial_2_1164" cx="0" cy="0" r="1" gradientUnits="userSpaceOnUse" gradientTransform="translate(24 23.9999) scale(23.5695 23.5695)">
<stop offset="0.5" stop-color="#FDE030"/>
<stop offset="0.9188" stop-color="#F7C02B"/>
<stop offset="1" stop-color="#F4A223"/>
</radialGradient>
<radialGradient id="paint1_radial_2_1164" cx="0" cy="0" r="1" gradientUnits="userSpaceOnUse" gradientTransform="translate(8.9589 26.8671) scale(7.8778 7.48355)">
<stop stop-color="#ED7770"/>
<stop offset="0.9" stop-color="#ED7770" stop-opacity="0"/>
</radialGradient>
<radialGradient id="paint2_radial_2_1164" cx="0" cy="0" r="1" gradientUnits="userSpaceOnUse" gradientTransform="translate(39.3732 26.8671) scale(7.8778 7.48355)">
<stop stop-color="#ED7770"/>
<stop offset="0.9" stop-color="#ED7770" stop-opacity="0"/>
</radialGradient>
</defs>
</svg>
