<svg width="44" height="46" viewBox="0 0 44 46" fill="none" xmlns="http://www.w3.org/2000/svg">
<path d="M22.3953 0.724669C23.5953 0.410749 24.8748 0.438565 26.1186 0.728643C27.3544 1.02667 28.5902 1.65451 29.5081 2.67972C30.4062 3.69698 30.9585 4.93279 31.1453 6.2282C31.3201 7.5117 31.1572 8.83493 30.5492 9.93167C30.4777 8.69983 30.2631 7.56733 29.9015 6.52226C29.7148 6.00171 29.4962 5.505 29.23 5.0361C28.9677 4.57118 28.6578 4.11024 28.328 3.73274C27.6564 2.95787 26.7464 2.35387 25.7252 1.88498C24.7 1.40019 23.5834 1.04256 22.3953 0.724669Z" fill="#B0BEC5"/>
<path d="M29.7942 45.5002C25.5662 45.5002 21.97 43.4776 20.5514 42.0749C19.2758 41.0338 11.2252 33.2613 4.66863 26.8994C4.4024 26.6411 4.24742 26.4941 4.23153 26.4742C3.48845 25.7311 3.02751 24.9563 2.89637 24.2251C2.74537 23.3946 3.00366 22.6436 3.65535 21.9879C4.2514 21.3919 4.98255 21.078 5.77729 21.078C6.7111 21.078 7.64888 21.5071 8.41978 22.282L15.02 28.624L4.46597 17.7282C3.25003 16.5122 2.63809 14.4976 4.1759 12.9637C4.77195 12.3677 5.5031 12.0538 6.29784 12.0538C7.23165 12.0538 8.16944 12.4829 8.94033 13.2578L19.7249 23.7721L6.76673 10.4881C6.07531 9.79672 5.65013 8.95033 5.57463 8.10791C5.49913 7.20986 5.80908 6.38731 6.47268 5.72371C7.06873 5.12766 7.79988 4.81374 8.59462 4.81374C9.52446 4.81374 10.4622 5.23892 11.2371 6.01379L24.4535 18.9004L14.8532 9.03378C14.1578 8.33839 13.7326 7.49199 13.661 6.64958C13.5855 5.7555 13.8955 4.93295 14.5591 4.26935C15.1552 3.6733 15.8863 3.35938 16.681 3.35938C17.6149 3.35938 18.5526 3.78853 19.3235 4.5634L22.1885 7.37278C27.2947 12.3796 31.5624 16.5718 32.0194 17.0407C32.2419 17.2195 32.532 17.2871 32.6552 17.2275C32.7347 17.1878 32.8221 17.005 32.8062 16.6195C32.7824 15.944 32.687 15.1055 32.5876 14.2194C32.389 12.4392 32.1823 10.5954 32.4406 9.37949C33.0049 7.26947 34.1135 6.37539 34.9401 5.98995C36.0765 5.46542 37.1772 5.64821 37.3878 5.74755C39.4542 6.71713 39.0449 8.33839 38.4806 10.5875L38.4687 10.6431L38.4051 11.108C37.9918 13.1426 40.1138 18.7653 42.2357 23.3469L42.2675 23.4105C43.6861 26.51 46.2412 34.4613 39.4065 41.296C36.2633 44.4312 32.8618 45.5002 29.7942 45.5002ZM5.77729 22.2701C5.30839 22.2701 4.86334 22.4648 4.49776 22.8304C4.12026 23.2079 3.98913 23.5734 4.06861 24.0105C4.15603 24.4914 4.50968 25.0636 5.06202 25.6199C5.066 25.6239 5.22495 25.7788 5.49913 26.0411C14.8055 35.0732 20.4242 40.4417 21.3223 41.1649L21.37 41.2086C23.5634 43.4021 31.7134 47.2963 38.5601 40.4496C44.8663 34.1434 42.494 26.7802 41.1787 23.9033L41.1509 23.8437C39.784 20.8952 36.6766 13.7426 37.2289 10.8895L37.3203 10.2934C37.9322 7.86155 37.968 7.35292 36.9309 6.85223C36.6249 6.7966 34.4314 6.53036 33.593 9.65764C33.3824 10.655 33.585 12.479 33.7639 14.0883C33.8672 14.9983 33.9625 15.8605 33.9864 16.5798C34.0261 17.7123 33.4897 18.1454 33.1638 18.3044C32.5002 18.6262 31.7095 18.352 31.2167 17.9388L31.1651 17.8911C30.9227 17.6288 25.1569 11.9743 21.3422 8.2311L18.4732 5.41376C17.4956 4.43227 16.236 4.26935 15.3896 5.11574C14.9763 5.529 14.7896 6.01379 14.8333 6.55023C14.881 7.11052 15.183 7.69465 15.6876 8.19931L25.3079 18.0659C25.7609 18.5269 25.7609 19.2819 25.2999 19.7428C24.8589 20.1839 24.08 20.1918 23.627 19.7547L10.3987 6.86018C9.42114 5.88266 8.15751 5.71974 7.3151 6.56613C6.90183 6.97939 6.71507 7.46418 6.75878 8.00062C6.81044 8.56091 7.11244 9.14902 7.61312 9.64572L20.5792 22.9416C21.0362 23.4026 21.0322 24.1576 20.5713 24.6185C20.1302 25.0596 19.3513 25.0675 18.8983 24.6304L8.10188 14.1042C7.12436 13.1187 5.86073 12.9598 5.01831 13.8062C3.98913 14.8353 4.5375 16.1109 5.31634 16.8937L15.8744 27.7975C16.3274 28.2584 16.3234 29.0094 15.8625 29.4664C15.4174 29.9115 14.6465 29.9154 14.1935 29.4823L7.58531 23.1324C7.02899 22.5721 6.38923 22.2701 5.77729 22.2701Z" fill="#EDA600"/>
<path d="M20.9488 41.6295C19.3792 40.3698 4.80378 26.1957 4.64086 26.0407C3.99712 25.397 3.59181 24.7294 3.48054 24.1175C3.36531 23.4817 3.56002 22.9254 4.07659 22.4088C4.55741 21.928 5.14551 21.6737 5.77733 21.6737C6.54822 21.6737 7.33898 22.0393 7.99861 22.7029L14.6068 29.0528C14.7221 29.1641 14.8731 29.2197 15.0201 29.2197C15.1751 29.2197 15.3261 29.1601 15.4413 29.0448C15.6718 28.8144 15.6718 28.4408 15.4453 28.2104L4.89517 17.3146C3.83817 16.2576 3.34146 14.6403 4.59714 13.3846C5.07796 12.9038 5.66606 12.6495 6.29788 12.6495C7.06877 12.6495 7.85953 13.015 8.51916 13.6787L19.3117 24.2009C19.4269 24.3122 19.5779 24.3718 19.7289 24.3718C19.8799 24.3718 20.0349 24.3122 20.1501 24.197C20.3806 23.9665 20.3845 23.593 20.1541 23.3585L7.19195 10.0706C6.59193 9.47054 6.23032 8.7513 6.16675 8.05193C6.10714 7.34065 6.35748 6.68102 6.89393 6.14457C7.37474 5.66376 7.96285 5.40944 8.59466 5.40944C9.36555 5.40944 10.1563 5.77502 10.8159 6.43465L24.0363 19.3252C24.1516 19.4365 24.3026 19.4961 24.4536 19.4961C24.6046 19.4961 24.7596 19.4365 24.8748 19.3213C25.1053 19.0908 25.1092 18.7173 24.8788 18.4828L15.2784 8.6162C14.6744 8.0122 14.3128 7.29694 14.2532 6.59757C14.1936 5.88628 14.4439 5.22665 14.9803 4.69021C15.4612 4.20939 16.0493 3.95508 16.6811 3.95508C17.452 3.95508 18.2427 4.32066 18.9024 4.98426C22.423 8.44135 31.6141 17.4815 31.9241 17.8152C33.1043 18.6298 33.3427 17.398 33.4023 16.5993C33.4698 15.6695 32.4049 12.423 33.0248 9.50232C34.0659 5.62005 37.066 6.25583 37.1336 6.28762C38.7787 7.05852 38.4647 8.21088 37.8806 10.5275L37.821 10.9845C37.2091 14.0124 41.4132 22.985 41.7232 23.6565C43.3722 27.2646 45.2717 34.5802 38.9813 40.8705C32.087 47.7648 23.5516 44.2322 20.9488 41.6295Z" fill="url(#paint0_radial_25_167)"/>
<path d="M30.9745 17.4302C28.793 21.8847 29.0751 28.1194 32.3494 33.1222C32.719 33.7977 33.3508 33.4679 33.0289 32.7725C29.0751 24.3126 33.2196 18.217 33.2196 18.217L30.9745 17.4302Z" fill="#EDA600"/>
<path d="M22.7251 4.49183C23.3887 4.07062 24.2192 3.9832 25.002 4.12228C25.7928 4.26135 26.5478 4.65475 27.1438 5.19914C27.7359 5.75148 28.1571 6.44687 28.4194 7.17008C28.5465 7.53169 28.6101 7.91316 28.6697 8.28271C28.6896 8.66418 28.6896 9.04565 28.63 9.42713C28.3558 9.13705 28.1412 8.84697 27.9386 8.56484C27.7041 8.2986 27.5213 8.01647 27.3107 7.75819C26.8975 7.24558 26.4961 6.78066 26.063 6.3674C25.6179 5.96606 25.149 5.6124 24.6046 5.30643C24.0642 4.99251 23.4563 4.73025 22.7251 4.49183Z" fill="#90A4AE"/>
<path d="M0.00759488 29.6689C0.567883 30.7657 1.15201 31.7829 1.83151 32.681C2.50703 33.579 3.2819 34.342 4.18392 34.8387C4.62103 35.0811 5.14158 35.2917 5.65021 35.4506C6.16281 35.6136 6.69528 35.7248 7.24365 35.8003C8.34038 35.9354 9.49275 35.9116 10.7127 35.7248C9.76693 36.5474 8.5033 36.9845 7.21583 37.0798C5.91247 37.1673 4.58924 36.8851 3.40508 36.2176C2.21298 35.5381 1.33877 34.4572 0.790408 33.3088C0.242042 32.1525 -0.0520102 30.9087 0.00759488 29.6689Z" fill="#B0BEC5"/>
<path d="M3.76269 29.2041C4.14814 29.8717 4.52961 30.4081 4.94685 30.877C5.36011 31.3459 5.80516 31.7314 6.28995 32.081C6.78268 32.4188 7.3231 32.7168 7.9112 33.0149C8.20526 33.1659 8.51918 33.2851 8.82912 33.4599C9.15099 33.599 9.47683 33.746 9.81857 33.9566C9.45696 34.0917 9.08741 34.1712 8.70991 34.2308C8.33639 34.2467 7.95094 34.2666 7.56947 34.2149C6.80652 34.1116 6.04358 33.8454 5.376 33.3804C4.72035 32.9076 4.17595 32.2519 3.87793 31.5088C3.57593 30.7697 3.48851 29.9432 3.76269 29.2041Z" fill="#90A4AE"/>
<defs>
<radialGradient id="paint0_radial_25_167" cx="0" cy="0" r="1" gradientUnits="userSpaceOnUse" gradientTransform="translate(14.7961 14.0362) rotate(-45) scale(36.1634)">
<stop offset="0.3533" stop-color="#FFCA28"/>
<stop offset="0.8723" stop-color="#FFB300"/>
</radialGradient>
</defs>
</svg>
