<svg width="44" height="46" viewBox="0 0 44 46" fill="none" xmlns="http://www.w3.org/2000/svg">
<path d="M20.9488 41.6297C19.3792 40.3701 4.80378 26.196 4.64086 26.041C3.99712 25.3973 3.59181 24.7297 3.48054 24.1177C3.36531 23.4819 3.56002 22.9256 4.07659 22.4091C4.55741 21.9282 5.14551 21.6739 5.77733 21.6739C6.54822 21.6739 7.33898 22.0395 7.99861 22.7031L14.6068 29.053C14.7221 29.1643 14.8731 29.2199 15.0201 29.2199C15.1751 29.2199 15.3261 29.1603 15.4413 29.0451C15.6718 28.8146 15.6718 28.4411 15.4453 28.2106L4.89517 17.3148C3.83817 16.2578 3.34146 14.6405 4.59714 13.3848C5.07796 12.904 5.66606 12.6497 6.29788 12.6497C7.06877 12.6497 7.85953 13.0153 8.51916 13.6789L19.3117 24.2012C19.4269 24.3124 19.5779 24.372 19.7289 24.372C19.8799 24.372 20.0349 24.3124 20.1501 24.1972C20.3806 23.9667 20.3845 23.5932 20.1541 23.3588L7.19195 10.0708C6.59193 9.47078 6.23032 8.75154 6.16675 8.05218C6.10714 7.34089 6.35748 6.68126 6.89393 6.14482C7.37474 5.664 7.96285 5.40969 8.59466 5.40969C9.36555 5.40969 10.1563 5.77526 10.8159 6.43489L24.0363 19.3255C24.1516 19.4367 24.3026 19.4964 24.4536 19.4964C24.6046 19.4964 24.7596 19.4367 24.8748 19.3215C25.1053 19.091 25.1092 18.7175 24.8788 18.4831L15.2784 8.61644C14.6744 8.01244 14.3128 7.29718 14.2532 6.59781C14.1936 5.88653 14.4439 5.2269 14.9803 4.69045C15.4612 4.20964 16.0493 3.95532 16.6811 3.95532C17.452 3.95532 18.2427 4.3209 18.9024 4.9845C22.423 8.4416 31.6141 17.4817 31.9241 17.8155C33.1043 18.6301 33.3427 17.3983 33.4023 16.5995C33.4698 15.6697 32.4049 12.4232 33.0248 9.50257C34.0659 5.62029 37.066 6.25608 37.1336 6.28787C38.7787 7.05876 38.4647 8.21113 37.8806 10.5278L37.821 10.9847C37.2091 14.0127 41.4132 22.9852 41.7232 23.6568C43.3722 27.2649 45.2717 34.5804 38.9813 40.8707C32.087 47.7651 23.5516 44.2325 20.9488 41.6297Z" fill="url(#paint0_radial_2_1199)"/>
<path d="M29.7942 45.4999C25.5662 45.4999 21.97 43.4773 20.5514 42.0746C19.2758 41.0335 11.2252 33.261 4.66863 26.8992C4.4024 26.6409 4.24742 26.4938 4.23153 26.474C3.48845 25.7309 3.02751 24.956 2.89637 24.2249C2.74537 23.3944 3.00366 22.6434 3.65535 21.9877C4.2514 21.3917 4.98255 21.0777 5.77729 21.0777C6.7111 21.0777 7.64888 21.5069 8.41978 22.2818L15.02 28.6237L4.46597 17.7279C3.25003 16.512 2.63809 14.4973 4.1759 12.9635C4.77195 12.3674 5.5031 12.0535 6.29784 12.0535C7.23165 12.0535 8.16944 12.4827 8.94033 13.2575L19.7249 23.7719L6.76673 10.4879C6.07531 9.79648 5.65013 8.95009 5.57463 8.10767C5.49913 7.20962 5.80908 6.38707 6.47268 5.72347C7.06873 5.12741 7.79988 4.81349 8.59462 4.81349C9.52446 4.81349 10.4622 5.23868 11.2371 6.01354L24.4535 18.9002L14.8532 9.03353C14.1578 8.33814 13.7326 7.49175 13.661 6.64933C13.5855 5.75525 13.8955 4.9327 14.5591 4.2691C15.1552 3.67305 15.8863 3.35913 16.681 3.35913C17.6149 3.35913 18.5526 3.78829 19.3235 4.56315L22.1885 7.37254C27.2947 12.3794 31.5624 16.5716 32.0194 17.0405C32.2419 17.2193 32.532 17.2868 32.6552 17.2272C32.7347 17.1875 32.8221 17.0047 32.8062 16.6193C32.7824 15.9437 32.687 15.1053 32.5876 14.2192C32.389 12.439 32.1823 10.5952 32.4406 9.37924C33.0049 7.26922 34.1135 6.37515 34.9401 5.9897C36.0765 5.46518 37.1772 5.64797 37.3878 5.74731C39.4542 6.71688 39.0449 8.33814 38.4806 10.5872L38.4687 10.6429L38.4051 11.1078C37.9918 13.1423 40.1138 18.7651 42.2357 23.3467L42.2675 23.4103C43.6861 26.5097 46.2412 34.4611 39.4065 41.2958C36.2633 44.431 32.8618 45.4999 29.7942 45.4999ZM5.77729 22.2698C5.30839 22.2698 4.86334 22.4645 4.49776 22.8301C4.12026 23.2076 3.98913 23.5732 4.06861 24.0103C4.15603 24.4911 4.50968 25.0633 5.06202 25.6196C5.066 25.6236 5.22495 25.7786 5.49913 26.0408C14.8055 35.073 20.4242 40.4414 21.3223 41.1646L21.37 41.2084C23.5634 43.4018 31.7134 47.296 38.5601 40.4494C44.8663 34.1432 42.494 26.78 41.1787 23.903L41.1509 23.8434C39.784 20.8949 36.6766 13.7423 37.2289 10.8892L37.3203 10.2932C37.9322 7.8613 37.968 7.35267 36.9309 6.85199C36.6249 6.79636 34.4314 6.53012 33.593 9.6574C33.3824 10.6548 33.585 12.4787 33.7639 14.088C33.8672 14.998 33.9625 15.8603 33.9864 16.5795C34.0261 17.712 33.4897 18.1452 33.1638 18.3041C32.5002 18.626 31.7095 18.3518 31.2167 17.9385L31.1651 17.8908C30.9227 17.6286 25.1569 11.9741 21.3422 8.23085L18.4732 5.41352C17.4956 4.43202 16.236 4.2691 15.3896 5.11549C14.9763 5.52876 14.7896 6.01354 14.8333 6.54999C14.881 7.11028 15.183 7.69441 15.6876 8.19906L25.3079 18.0657C25.7609 18.5266 25.7609 19.2816 25.2999 19.7426C24.8589 20.1837 24.08 20.1916 23.627 19.7545L10.3987 6.85994C9.42114 5.88241 8.15751 5.71949 7.3151 6.56588C6.90183 6.97915 6.71507 7.46393 6.75878 8.00038C6.81044 8.56067 7.11244 9.14877 7.61312 9.64548L20.5792 22.9414C21.0362 23.4023 21.0322 24.1573 20.5713 24.6183C20.1302 25.0594 19.3513 25.0673 18.8983 24.6302L8.10188 14.1039C7.12436 13.1185 5.86073 12.9595 5.01831 13.8059C3.98913 14.8351 4.5375 16.1106 5.31634 16.8935L15.8744 27.7972C16.3274 28.2582 16.3234 29.0092 15.8625 29.4662C15.4174 29.9112 14.6465 29.9152 14.1935 29.4821L7.58531 23.1321C7.02899 22.5718 6.38923 22.2698 5.77729 22.2698Z" fill="#EDA600"/>
<path d="M30.9745 17.4299C28.793 21.8844 29.0751 28.1191 32.3494 33.122C32.719 33.7975 33.3508 33.4677 33.0289 32.7723C29.0751 24.3123 33.2196 18.2167 33.2196 18.2167L30.9745 17.4299Z" fill="#EDA600"/>
<path d="M22.3953 0.724669C23.5953 0.410749 24.8748 0.438565 26.1186 0.728643C27.3544 1.02667 28.5902 1.65451 29.5081 2.67972C30.4062 3.69698 30.9585 4.93279 31.1453 6.2282C31.3201 7.5117 31.1572 8.83493 30.5492 9.93167C30.4777 8.69983 30.2631 7.56733 29.9015 6.52226C29.7148 6.00171 29.4962 5.505 29.23 5.0361C28.9677 4.57118 28.6578 4.11024 28.328 3.73274C27.6564 2.95787 26.7464 2.35387 25.7252 1.88498C24.7 1.40019 23.5834 1.04256 22.3953 0.724669Z" fill="#B0BEC5"/>
<path d="M22.7251 4.49183C23.3887 4.07062 24.2192 3.9832 25.002 4.12228C25.7928 4.26135 26.5478 4.65475 27.1438 5.19914C27.7359 5.75148 28.1571 6.44687 28.4194 7.17008C28.5465 7.53169 28.6101 7.91316 28.6697 8.28271C28.6896 8.66418 28.6896 9.04565 28.63 9.42713C28.3558 9.13705 28.1412 8.84697 27.9386 8.56484C27.7041 8.2986 27.5213 8.01647 27.3107 7.75819C26.8975 7.24558 26.4961 6.78066 26.063 6.3674C25.6179 5.96606 25.149 5.6124 24.6046 5.30643C24.0642 4.99251 23.4563 4.73025 22.7251 4.49183Z" fill="#90A4AE"/>
<path d="M0.00759488 29.6689C0.567883 30.7657 1.15201 31.7829 1.83151 32.681C2.50703 33.579 3.2819 34.342 4.18392 34.8387C4.62103 35.0811 5.14158 35.2917 5.65021 35.4506C6.16281 35.6136 6.69528 35.7248 7.24365 35.8003C8.34038 35.9354 9.49275 35.9116 10.7127 35.7248C9.76693 36.5474 8.5033 36.9845 7.21583 37.0798C5.91247 37.1673 4.58924 36.8851 3.40508 36.2176C2.21298 35.5381 1.33877 34.4572 0.790408 33.3088C0.242042 32.1525 -0.0520102 30.9087 0.00759488 29.6689Z" fill="#B0BEC5"/>
<path d="M3.76269 29.2039C4.14814 29.8714 4.52961 30.4079 4.94685 30.8768C5.36011 31.3457 5.80516 31.7311 6.28995 32.0808C6.78268 32.4186 7.3231 32.7166 7.9112 33.0146C8.20526 33.1656 8.51918 33.2848 8.82912 33.4597C9.15099 33.5987 9.47683 33.7458 9.81857 33.9564C9.45696 34.0915 9.08741 34.1709 8.70991 34.2306C8.33639 34.2464 7.95094 34.2663 7.56947 34.2147C6.80652 34.1113 6.04358 33.8451 5.376 33.3802C4.72035 32.9073 4.17595 32.2517 3.87793 31.5086C3.57593 30.7695 3.48851 29.943 3.76269 29.2039Z" fill="#90A4AE"/>
<defs>
<radialGradient id="paint0_radial_2_1199" cx="0" cy="0" r="1" gradientUnits="userSpaceOnUse" gradientTransform="translate(14.7961 14.0365) rotate(-45) scale(36.1634)">
<stop offset="0.3533" stop-color="#FFCA28"/>
<stop offset="0.8723" stop-color="#FFB300"/>
</radialGradient>
</defs>
</svg>
