<svg width="596" height="491" viewBox="0 0 596 491" fill="none" xmlns="http://www.w3.org/2000/svg">
<rect width="596" height="491" rx="24" fill="#E3E3E3"/>
<path d="M297.5 270.021C303.073 270.021 307.811 268.07 311.713 264.167C315.616 260.265 317.566 255.528 317.563 249.958C317.563 244.385 315.611 239.648 311.709 235.745C307.806 231.843 303.07 229.893 297.5 229.896C291.927 229.896 287.189 231.847 283.287 235.75C279.384 239.652 277.435 244.388 277.438 249.958C277.438 255.531 279.389 260.269 283.291 264.172C287.194 268.074 291.93 270.024 297.5 270.021ZM297.5 265.563L292.596 254.863L281.896 249.958L292.596 245.054L297.5 234.354L302.404 245.054L313.104 249.958L302.404 254.863L297.5 265.563ZM261.833 285.625C259.381 285.625 257.281 284.751 255.534 283.004C253.786 281.256 252.914 279.157 252.917 276.708V223.208C252.917 220.756 253.791 218.656 255.538 216.909C257.286 215.161 259.384 214.289 261.833 214.292H275.877L284.125 205.375H310.875L319.123 214.292H333.167C335.619 214.292 337.719 215.165 339.466 216.913C341.214 218.661 342.086 220.759 342.083 223.208V276.708C342.083 279.16 341.21 281.26 339.462 283.008C337.714 284.756 335.616 285.628 333.167 285.625H261.833Z" fill="#040404"/>
</svg>
