<svg width="72" height="72" viewBox="0 0 72 72" fill="none" xmlns="http://www.w3.org/2000/svg">
<circle cx="36" cy="36" r="36" fill="#4169E1"/>
<path d="M37.5939 46.3415L46.9439 36.9915C47.0856 36.8499 47.1861 36.6964 47.2456 36.5311C47.3051 36.3659 47.3344 36.1888 47.3335 35.9999C47.3335 35.811 47.3037 35.6339 47.2442 35.4686C47.1847 35.3034 47.0846 35.1499 46.9439 35.0082L37.5939 25.6582C37.3342 25.3985 37.0093 25.263 36.6192 25.2516C36.2292 25.2403 35.8929 25.3758 35.6106 25.6582C35.3272 25.9179 35.1794 26.2428 35.1671 26.6329C35.1549 27.0229 35.2909 27.3592 35.5751 27.6415L42.5168 34.5832H26.6856C26.2842 34.5832 25.9475 34.7192 25.6755 34.9912C25.4035 35.2632 25.2679 35.5994 25.2689 35.9999C25.2689 36.4013 25.4044 36.738 25.6755 37.01C25.9465 37.282 26.2832 37.4175 26.6856 37.4165H42.5168L35.5751 44.3582C35.3154 44.6179 35.1794 44.9485 35.1671 45.3499C35.1549 45.7513 35.2909 46.0818 35.5751 46.3415C35.8349 46.6249 36.1654 46.7665 36.5668 46.7665C36.9682 46.7665 37.3106 46.6249 37.5939 46.3415Z" fill="white"/>
</svg>
