<svg width="72" height="72" viewBox="0 0 72 72" fill="none" xmlns="http://www.w3.org/2000/svg">
<circle cx="36" cy="36" r="36" transform="matrix(-1 0 0 1 72 0)" fill="#CDCCCC"/>
<path d="M34.4061 46.3415L25.0561 36.9915C24.9144 36.8499 24.8139 36.6964 24.7544 36.5311C24.6949 36.3659 24.6656 36.1888 24.6665 35.9999C24.6665 35.811 24.6963 35.6339 24.7558 35.4686C24.8153 35.3034 24.9154 35.1499 25.0561 35.0082L34.4061 25.6582C34.6658 25.3985 34.9907 25.263 35.3808 25.2516C35.7708 25.2403 36.1071 25.3758 36.3894 25.6582C36.6728 25.9179 36.8206 26.2428 36.8329 26.6329C36.8451 27.0229 36.7091 27.3592 36.4249 27.6415L29.4832 34.5832H45.3144C45.7158 34.5832 46.0525 34.7192 46.3245 34.9912C46.5965 35.2632 46.7321 35.5994 46.7311 35.9999C46.7311 36.4013 46.5956 36.738 46.3245 37.01C46.0535 37.282 45.7168 37.4175 45.3144 37.4165H29.4832L36.4249 44.3582C36.6846 44.6179 36.8206 44.9485 36.8329 45.3499C36.8451 45.7513 36.7091 46.0818 36.4249 46.3415C36.1651 46.6249 35.8346 46.7665 35.4332 46.7665C35.0318 46.7665 34.6894 46.6249 34.4061 46.3415Z" fill="white"/>
</svg>
