<svg width="32" height="33" viewBox="0 0 32 33" fill="none" xmlns="http://www.w3.org/2000/svg">
<path d="M4 23.4998V28.4998H9L23.7467 13.7532L18.7467 8.75317L4 23.4998ZM27.6133 9.88651C27.7369 9.76316 27.835 9.61664 27.9019 9.45534C27.9688 9.29404 28.0033 9.12113 28.0033 8.94651C28.0033 8.77188 27.9688 8.59897 27.9019 8.43768C27.835 8.27638 27.7369 8.12986 27.6133 8.00651L24.4933 4.88651C24.37 4.7629 24.2235 4.66484 24.0622 4.59793C23.9009 4.53102 23.728 4.49658 23.5533 4.49658C23.3787 4.49658 23.2058 4.53102 23.0445 4.59793C22.8832 4.66484 22.7367 4.7629 22.6133 4.88651L20.1733 7.32651L25.1733 12.3265L27.6133 9.88651Z" fill="#4169E1"/>
</svg>
