<svg width="24" height="25" viewBox="0 0 24 25" fill="none" xmlns="http://www.w3.org/2000/svg">
<g clip-path="url(#clip0_25_179)">
<path d="M12.239 5.12403C14.5372 5.12403 16.0875 6.09401 16.9714 6.90461L20.4255 3.60928C18.3042 1.6826 15.5435 0.5 12.239 0.5C7.45214 0.5 3.31804 3.18406 1.30542 7.09056L5.2627 10.0936C6.25551 7.2102 9.00248 5.12403 12.239 5.12403Z" fill="#EB4335"/>
<path d="M23.9885 12.7247C23.9885 11.7414 23.9069 11.0239 23.7301 10.2798H12.239V14.7178H18.984C18.8481 15.8207 18.1138 17.4816 16.4819 18.5977L16.459 18.7463L20.0923 21.4965L20.344 21.521C22.6558 19.4349 23.9885 16.3654 23.9885 12.7247Z" fill="#4285F4"/>
<path d="M12.239 24.4173C15.5435 24.4173 18.3177 23.3543 20.344 21.5206L16.4819 18.5973C15.4484 19.3016 14.0612 19.7932 12.239 19.7932C9.00248 19.7932 6.25551 17.7071 5.27629 14.8237L5.13276 14.8356L1.35483 17.6925L1.30542 17.8267C3.31804 21.7332 7.45214 24.4173 12.239 24.4173Z" fill="#34A853"/>
<path d="M5.27634 14.8238C5.01797 14.0797 4.86844 13.2824 4.86844 12.4586C4.86844 11.6347 5.01797 10.8375 5.26275 10.0934L5.25591 9.93494L1.43062 7.03223L1.30547 7.09039C0.475969 8.71149 0 10.5319 0 12.4586C0 14.3853 0.475969 16.2056 1.30547 17.8267L5.27634 14.8238Z" fill="#FBBC05"/>
</g>
<defs>
<clipPath id="clip0_25_179">
<rect width="24" height="24" fill="white" transform="translate(0 0.5)"/>
</clipPath>
</defs>
</svg>
