<svg width="28" height="28" viewBox="0 0 28 28" fill="none" xmlns="http://www.w3.org/2000/svg">
<path d="M14 17.4708C13.8444 17.4708 13.6935 17.4416 13.5473 17.3833C13.4011 17.3249 13.2798 17.2472 13.1833 17.1499L7.81665 11.7833C7.60276 11.5694 7.49582 11.2972 7.49582 10.9666C7.49582 10.636 7.60276 10.3638 7.81665 10.1499C8.03054 9.93605 8.30276 9.8291 8.63332 9.8291C8.96387 9.8291 9.2361 9.93605 9.44999 10.1499L14 14.6999L18.55 10.1499C18.7639 9.93605 19.0361 9.8291 19.3667 9.8291C19.6972 9.8291 19.9694 9.93605 20.1833 10.1499C20.3972 10.3638 20.5042 10.636 20.5042 10.9666C20.5042 11.2972 20.3972 11.5694 20.1833 11.7833L14.8167 17.1499C14.7 17.2666 14.5736 17.3494 14.4375 17.3984C14.3014 17.4474 14.1555 17.4715 14 17.4708Z" fill="#040404"/>
</svg>
