<svg width="76" height="76" viewBox="0 0 76 76" fill="none" xmlns="http://www.w3.org/2000/svg">
<path d="M35.7832 61.1169C35.2026 60.5363 34.8986 59.7974 34.8712 58.9002C34.8437 58.003 35.1213 57.2641 35.704 56.6835L51.2207 41.1669H15.8332C14.936 41.1669 14.1833 40.8629 13.5753 40.2549C12.9673 39.6469 12.6644 38.8953 12.6665 38.0002C12.6665 37.103 12.9705 36.3504 13.5785 35.7424C14.1865 35.1344 14.9381 34.8314 15.8332 34.8335H51.2207L35.704 19.3169C35.1235 18.7363 34.8458 17.9974 34.8712 17.1002C34.8965 16.203 35.2005 15.4641 35.7832 14.8835C36.3637 14.303 37.1026 14.0127 37.9998 14.0127C38.8971 14.0127 39.636 14.303 40.2165 14.8835L61.1165 35.7835C61.4332 36.0474 61.658 36.3778 61.791 36.7747C61.924 37.1716 61.9895 37.5801 61.9874 38.0002C61.9874 38.4224 61.9219 38.8183 61.791 39.1877C61.6601 39.5571 61.4353 39.9002 61.1165 40.2169L40.2165 61.1169C39.636 61.6974 38.8971 61.9877 37.9998 61.9877C37.1026 61.9877 36.3637 61.6974 35.7832 61.1169Z" fill="white"/>
</svg>
