<svg width="40" height="40" viewBox="0 0 40 40" fill="none" xmlns="http://www.w3.org/2000/svg">
<path d="M14.7501 29.7083L20.0001 26.5417L25.2501 29.75L23.8751 23.75L28.5001 19.75L22.4167 19.2083L20.0001 13.5417L17.5834 19.1667L11.5001 19.7083L16.1251 23.75L14.7501 29.7083ZM20.0001 30.4583L13.0834 34.625C12.7778 34.8194 12.4584 34.9028 12.1251 34.875C11.7917 34.8472 11.5001 34.7361 11.2501 34.5417C11.0001 34.3472 10.8056 34.1039 10.6667 33.8117C10.5278 33.5194 10.5001 33.1933 10.5834 32.8333L12.4167 24.9583L6.29173 19.6667C6.01395 19.4167 5.84062 19.1317 5.77173 18.8117C5.70284 18.4917 5.72339 18.1794 5.83339 17.875C5.9445 17.5694 6.11117 17.3194 6.33339 17.125C6.55562 16.9306 6.86117 16.8056 7.25006 16.75L15.3334 16.0417L18.4584 8.625C18.5973 8.29167 18.8128 8.04167 19.1051 7.875C19.3973 7.70833 19.6956 7.625 20.0001 7.625C20.3056 7.625 20.6039 7.70833 20.8951 7.875C21.1862 8.04167 21.4017 8.29167 21.5417 8.625L24.6667 16.0417L32.7501 16.75C33.1389 16.8056 33.4445 16.9306 33.6667 17.125C33.8889 17.3194 34.0556 17.5694 34.1667 17.875C34.2778 18.1806 34.2989 18.4933 34.2301 18.8133C34.1612 19.1333 33.9873 19.4178 33.7084 19.6667L27.5834 24.9583L29.4167 32.8333C29.5001 33.1944 29.4723 33.5211 29.3334 33.8133C29.1945 34.1056 29.0001 34.3483 28.7501 34.5417C28.5001 34.7361 28.2084 34.8472 27.8751 34.875C27.5417 34.9028 27.2223 34.8194 26.9167 34.625L20.0001 30.4583Z" fill="#4169E1"/>
</svg>
